<?xml version="1.0" encoding="UTF-8"?><svg id="Layer_2" xmlns="http://www.w3.org/2000/svg" width="466.17" height="153.49" viewBox="0 0 466.17 153.49"><defs><style>.cls-1{fill:#def9ff;}</style></defs><g id="Layer_1-2"><polygon class="cls-1" points="354 0 368.25 0 368.25 2.29 368.17 2.37 357.35 13.77 368.25 13.77 368.25 16.14 354 16.14 354 13.85 354.07 13.77 364.9 2.37 354 2.37 354 0"/><polygon class="cls-1" points="369.78 0 369.78 16.14 372.15 16.14 382.6 16.14 382.6 13.77 372.15 13.77 372.15 9.48 380.71 9.48 380.71 7.12 372.15 7.12 372.15 2.37 382.6 2.37 382.6 0 372.15 0 369.78 0"/><path class="cls-1" d="M399.34,5.69c0-1.57-.65-3-1.68-4.03-1.03-1.03-2.46-1.66-4.02-1.66h-9.5v16.14h2.37v-4.75h6.84l2.75,4.75h2.73l-2.99-5.2c2.06-.86,3.5-2.89,3.5-5.25h0ZM394.14,9.02h-7.64V2.37h7.64c1.56,0,2.81,1.26,2.81,2.81v1.03c0,1.35-.97,2.5-2.26,2.75-.18.03-.37.06-.56.06Z"/><path class="cls-1" d="M409.96,0h-1.56C404.26,0,400.87,3.37,400.87,7.53v1.08c0,4.15,3.38,7.53,7.53,7.53h1.56c4.16,0,7.53-3.38,7.53-7.53v-1.08C417.49,3.37,414.12,0,409.96,0ZM415.12,9.12c0,2.56-2.09,4.66-4.66,4.66h-2.56c-2.56,0-4.66-2.09-4.66-4.66v-2.09c0-2.56,2.09-4.66,4.66-4.66h2.56c2.56,0,4.66,2.09,4.66,4.66v2.09Z"/><polygon class="cls-1" points="431.15 0 424.74 0 424.74 2.37 431.15 2.37 431.15 16.14 433.53 16.14 433.53 2.37 439.94 2.37 439.94 0 433.53 0 431.15 0"/><path class="cls-1" d="M450.56,0h-1.56C444.86,0,441.48,3.37,441.48,7.53v1.08c0,4.15,3.38,7.53,7.53,7.53h1.56c4.16,0,7.53-3.38,7.53-7.53v-1.08C458.09,3.37,454.72,0,450.56,0ZM455.72,9.12c0,2.56-2.09,4.66-4.66,4.66h-2.56c-2.56,0-4.66-2.09-4.66-4.66v-2.09c0-2.56,2.09-4.66,4.66-4.66h2.56c2.56,0,4.66,2.09,4.66,4.66v2.09Z"/><path class="cls-1" d="M367.14,24.2c-1.37-1.46-3.32-2.37-5.49-2.37h-7.66v16.14h7.66c2.17,0,4.12-.91,5.49-2.37,1.27-1.35,2.06-3.17,2.06-5.17v-1.08c0-1.99-.79-3.81-2.06-5.16h0ZM366.82,30.95c0,2.56-2.07,4.66-4.64,4.66h-5.81v-11.41h5.81c2.57,0,4.64,2.09,4.64,4.66,0,0,0,2.09,0,2.09Z"/><rect class="cls-1" x="370.74" y="21.83" width="2.37" height="16.14"/><path class="cls-1" d="M385.3,24.2l-.81-2.37h-4.31l-.81,2.37-4.73,13.77h2.5l1.31-3.79h7.76l1.31,3.79h2.5l-4.72-13.77h0ZM379.27,31.79l2.61-7.59h.91l2.61,7.59h-6.13Z"/><polygon class="cls-1" points="405.33 22.44 399.63 32.31 393.93 22.44 393.57 21.83 391.56 21.83 391.56 37.97 393.93 37.97 393.93 27.19 398.26 34.69 398.79 35.6 400.49 35.6 401 34.69 405.33 27.19 405.33 37.97 407.7 37.97 407.7 21.83 405.68 21.83 405.33 22.44"/><path class="cls-1" d="M418.32,21.83h-1.56c-4.15,0-7.53,3.37-7.53,7.53v1.08c0,4.15,3.38,7.53,7.53,7.53h1.56c4.16,0,7.53-3.38,7.53-7.53v-1.08c0-4.16-3.37-7.53-7.53-7.53ZM423.48,30.95c0,2.56-2.09,4.66-4.66,4.66h-2.56c-2.56,0-4.66-2.09-4.66-4.66v-2.09c0-2.56,2.09-4.66,4.66-4.66h2.56c2.56,0,4.66,2.09,4.66,4.66v2.09Z"/><polygon class="cls-1" points="440.2 34.93 430.46 21.83 427.38 21.83 427.38 37.97 429.75 37.97 429.75 24.87 439.51 37.97 442.59 37.97 442.59 21.83 440.2 21.83 440.2 34.93"/><path class="cls-1" d="M457.26,24.2c-1.37-1.46-3.32-2.37-5.49-2.37h-7.65v16.14h7.65c2.17,0,4.12-.91,5.49-2.37,1.27-1.35,2.06-3.17,2.06-5.17v-1.08c0-1.99-.79-3.81-2.06-5.16h0ZM456.94,30.95c0,2.56-2.08,4.66-4.64,4.66h-5.81v-11.41h5.81c2.56,0,4.64,2.09,4.64,4.66,0,0,0,2.09,0,2.09Z"/><path class="cls-1" d="M463.81,33.64c-1.3,0-2.36,1.05-2.36,2.36s1.05,2.36,2.36,2.36,2.36-1.05,2.36-2.36-1.06-2.36-2.36-2.36ZM463.81,38.11c-1.17,0-2.12-.95-2.12-2.12s.95-2.12,2.12-2.12,2.12.95,2.12,2.12-.95,2.12-2.12,2.12Z"/><path class="cls-1" d="M464.76,35.64c0-.33-.27-.59-.59-.59h-.94c-.06,0-.12.05-.12.12v1.65c0,.06.05.12.12.12s.12-.05.12-.12v-.59h.76l.44.65c.04.05.11.07.16.03s.07-.11.03-.16l-.37-.56c.24-.08.39-.3.39-.55ZM464.17,35.99h-.82v-.71h.82c.19,0,.35.16.35.35s-.16.35-.35.35h0Z"/><path class="cls-1" d="M138.53,100.05c0,8.58-.95,15.08-2.85,19.5-1.9,4.42-4.88,6.63-8.93,6.63h-10.76v-52.26h10.76c4.06,0,7.03,1.96,8.93,5.89,1.9,3.93,2.85,10.67,2.85,20.24ZM131.97,100.05c-.1-8.74-.7-14.16-1.79-16.26-1.09-2.11-2.52-3.13-4.29-3.08h-3.35v38.69h3.35c1.72.05,3.15-1.25,4.29-3.9,1.14-2.65,1.74-7.8,1.79-15.44Z"/><path class="cls-1" d="M149.96,79.14c0,.99-.31,1.79-.94,2.42-.68.62-1.48.94-2.42.94s-1.72-.31-2.34-.94c-.62-.67-.94-1.48-.94-2.42,0-.99.31-1.77.94-2.34.62-.62,1.4-.94,2.34-.94s1.72.29,2.34.86c.68.62,1.01,1.43,1.01,2.42ZM149.96,126.18h-6.63v-38.14h6.63v38.14Z"/><path class="cls-1" d="M172.89,126.18h-6.08v-1.09c-.99,1.35-2.42,2.03-4.29,2.03-5.88-.16-8.81-4.37-8.81-12.64,0-9.15,2.99-13.88,8.97-14.2,1.14,0,2.34.26,3.59.78v-2.73c0-2.7-.96-4.06-2.89-4.06-2.13-.1-3.82.81-5.07,2.73l-4.29-4.29c2.03-3.43,5.07-5.3,9.13-5.62,6.5,0,9.75,3.82,9.75,11.47v27.61ZM166.26,117.44v-9.2c-.83-.57-1.9-.86-3.2-.86-1.98.16-2.96,2.47-2.96,6.94.05,4.21,1.25,6.27,3.59,6.16,1.46-.05,2.31-1.06,2.57-3.04Z"/><path class="cls-1" d="M208.05,126.18h-6.71v-28.31c0-2.65-.81-3.98-2.42-3.98-1.87,0-2.78,1.33-2.73,3.98v28.31h-6.79v-28.39c.05-2.44-.81-3.67-2.57-3.67-1.87-.05-2.78,1.2-2.73,3.74v28.31h-6.63v-38.85h6.63v2.73c.68-1.98,2.18-2.96,4.52-2.96,2.18,0,3.85,1.17,4.99,3.51.94-2.34,2.89-3.51,5.85-3.51,2.6,0,4.68.94,6.24,2.81s2.34,4.52,2.34,7.96v28.31Z"/><path class="cls-1" d="M231.4,106.91c.05,7.75-.73,13.05-2.34,15.91-1.61,2.86-3.93,4.29-6.94,4.29-3.43,0-5.98-1.62-7.64-4.88-1.67-3.25-2.44-8.28-2.34-15.09,0-6.5.69-11.47,2.07-14.9,1.38-3.43,3.99-5.15,7.84-5.15,3.48,0,5.91,1.74,7.29,5.23,1.38,3.48,2.07,8.35,2.07,14.59ZM225.4,106.91c-.31-6.03-.64-9.66-.98-10.88-.34-1.22-1.13-1.86-2.38-1.91-1.25.05-2.11.68-2.57,1.87-.47,1.2-.81,4.89-1.01,11.08.1,5.04.36,8.45.78,10.22.42,1.77,1.35,2.7,2.81,2.81,1.4-.05,2.3-.99,2.69-2.81.39-1.82.61-5.28.66-10.37Z"/><path class="cls-1" d="M235.47,126.18v-38.85h6.55v2.34c1.25-1.72,2.83-2.57,4.76-2.57,2.18.05,3.93,1.01,5.23,2.89,1.3,1.87,1.95,3.87,1.95,6.01v30.19h-6.63v-28.47c-.21-1.87-1.14-2.81-2.81-2.81-1.61.21-2.44,1.2-2.5,2.96v28.31h-6.55Z"/><path class="cls-1" d="M277.3,126.18h-6.47v-1.48c-1.04,1.61-2.37,2.42-3.98,2.42-5.88,0-8.81-6.79-8.81-20.36,0-5.41.57-9.78,1.72-13.1,2.03-5.98,5.67-7.77,10.92-5.38v-11.23l6.63-3.98v53.12ZM270.67,113.93v-15.05c0-3.17-.86-4.76-2.57-4.76s-2.76,1.77-3.12,5.3c-.1.83-.16,3.28-.16,7.33,0,4.89.16,8.17.47,9.83.42,2.24,1.35,3.35,2.81,3.35,1.72,0,2.57-2,2.57-6.01Z"/><path class="cls-1" d="M319.81,100.05c0,8.58-.95,15.08-2.85,19.5-1.9,4.42-4.88,6.63-8.93,6.63h-10.76v-52.26h10.76c4.06,0,7.03,1.96,8.93,5.89,1.9,3.93,2.85,10.67,2.85,20.24ZM313.26,100.05c-.1-8.74-.7-14.16-1.79-16.26-1.09-2.11-2.52-3.13-4.29-3.08h-3.35v38.69h3.35c1.72.05,3.15-1.25,4.29-3.9,1.14-2.65,1.74-7.8,1.79-15.44Z"/><path class="cls-1" d="M331.24,79.14c0,.99-.31,1.79-.94,2.42-.68.62-1.48.94-2.42.94s-1.72-.31-2.34-.94c-.62-.67-.94-1.48-.94-2.42,0-.99.31-1.77.94-2.34.62-.62,1.4-.94,2.34-.94s1.72.29,2.34.86c.68.62,1.01,1.43,1.01,2.42ZM331.24,126.18h-6.63v-38.14h6.63v38.14Z"/><path class="cls-1" d="M352.31,116.12c-.05,3.85-.94,6.64-2.65,8.39-1.72,1.74-3.72,2.61-6.01,2.61s-4.29-.81-5.85-2.42-2.78-3.77-3.67-6.47l5.85-2.89c1.2,3.33,2.47,4.89,3.82,4.68,1.35-.16,2.05-1.09,2.11-2.81.05-1.56-.4-3.17-1.37-4.84-.96-1.66-2.04-3.17-3.24-4.52-1.46-1.56-2.81-3.39-4.06-5.5-1.25-2.11-1.82-4.22-1.72-6.36-.05-2.18.65-4.21,2.11-6.08,1.46-1.87,3.33-2.81,5.62-2.81,4.52.1,7.41,2.44,8.66,7.02l-4.99,2.5c-.89-2.29-1.98-3.43-3.28-3.43-1.3.1-1.95,1.04-1.95,2.81.21,1.46.77,2.8,1.68,4.02.91,1.22,2.09,2.64,3.55,4.25,1.2,1.14,2.38,2.8,3.55,4.95,1.17,2.16,1.78,4.46,1.83,6.9Z"/><path class="cls-1" d="M369.59,119.16l-1.64,7.02c-.78.62-1.69.94-2.73.94-2.13,0-3.81-.78-5.03-2.34-1.22-1.56-1.86-3.59-1.91-6.08v-24.57h-4.06v-7.02h4.06v-10.69l6.79-3.35v14.04h4.52v7.02h-4.52v23.79c.1,1.66.73,2.47,1.87,2.42.88,0,1.77-.39,2.65-1.17Z"/><path class="cls-1" d="M387.68,88.74l-1.17,7.96c-.78-1.35-1.82-2.03-3.12-2.03-2.44,0-3.69,2.16-3.74,6.47v25.04h-6.63v-38.85h6.63v1.87c1.14-1.4,2.52-2.11,4.13-2.11,1.46,0,2.76.55,3.9,1.64Z"/><path class="cls-1" d="M396.61,79.14c0,.99-.31,1.79-.94,2.42-.68.62-1.48.94-2.42.94s-1.72-.31-2.34-.94c-.62-.67-.94-1.48-.94-2.42,0-.99.31-1.77.94-2.34.62-.62,1.4-.94,2.34-.94s1.72.29,2.34.86c.68.62,1.01,1.43,1.01,2.42ZM396.61,126.18h-6.63v-38.14h6.63v38.14Z"/><path class="cls-1" d="M414.26,98.02c-.42-2.55-1.56-3.82-3.43-3.82-1.25-.05-2.15.51-2.69,1.68-.55,1.17-.9,4.85-1.05,11.04.16,6.5.56,10.31,1.21,11.43.65,1.12,1.62,1.65,2.93,1.6,1.51-.16,2.47-1.27,2.89-3.35l5.38,2.65c-1.09,5.04-3.82,7.64-8.19,7.8-3.43,0-6.06-1.42-7.88-4.25-1.82-2.83-2.73-8.07-2.73-15.72s.83-13.16,2.5-15.91c1.66-2.76,4.21-4.13,7.64-4.13,4.68.31,7.57,3.09,8.66,8.35l-5.23,2.65Z"/><path class="cls-1" d="M437.45,119.16l-1.64,7.02c-.78.62-1.69.94-2.73.94-2.13,0-3.81-.78-5.03-2.34-1.22-1.56-1.86-3.59-1.91-6.08v-24.57h-4.06v-7.02h4.06v-10.69l6.79-3.35v14.04h4.52v7.02h-4.52v23.79c.1,1.66.73,2.47,1.87,2.42.88,0,1.77-.39,2.65-1.17Z"/><path class="cls-1" d="M453.67,153.49H12.36c-6.82,0-12.36-4.53-12.36-10.09V56.78c0-5.56,5.55-10.09,12.36-10.09h441.31c6.82,0,12.36,4.53,12.36,10.09v86.62c0,5.56-5.55,10.09-12.36,10.09ZM12.36,53.69c-2.09,0-3.78,1.38-3.78,3.09v86.62c0,1.7,1.7,3.09,3.78,3.09h441.31c2.09,0,3.78-1.38,3.78-3.09V56.78c0-1.7-1.7-3.09-3.78-3.09H12.36Z"/><path class="cls-1" d="M34.27,89.06h-1.24l-9.8,6.98,34.53,26.13v-24.46l-23.49-8.65ZM56.87,120.36l-32.13-24.3,8.58-6.1h.79l22.76,8.38v22.02ZM37.07,89.06l21.42,7.89,21.42-7.89h-42.84ZM42.1,89.96h32.79l-16.4,6.04-16.39-6.04ZM83.95,89.06h-1.23l-23.49,8.65v24.46l34.53-26.13-9.81-6.98ZM60.12,98.34l22.75-8.38h.79l8.58,6.1-32.12,24.3v-22.02ZM83.95,89.06h-1.23l-23.49,8.65v24.46l34.53-26.13-9.81-6.98ZM60.12,98.34l22.75-8.38h.79l8.58,6.1-32.12,24.3v-22.02ZM37.07,89.06l21.42,7.89,21.42-7.89h-42.84ZM42.1,89.96h32.79l-16.4,6.04-16.39-6.04ZM33.03,89.06l-9.8,6.98,34.53,26.13v-24.46l-23.49-8.65h-1.24ZM56.87,120.36l-32.13-24.3,8.58-6.1h.79l22.76,8.38v22.02ZM98.12,62.34H18.91c-1.4,0-2.55,1.14-2.55,2.55v70.77c0,1.41,1.15,2.55,2.55,2.55h79.21c1.41,0,2.55-1.14,2.55-2.55v-70.77c0-1.41-1.14-2.55-2.55-2.55ZM58.54,126.45v-.53l-.05.03-39.59-29.95,12.87-9.16h53.44l12.87,9.16-.31.23.36.26-39.59,29.96ZM84.89,87.28h-52.79l-12.26,8.72,38.38,29.04.27.21.05-.04h0s38.6-29.21,38.6-29.21l-12.08-8.6-.17-.12ZM58.54,124.09l-.05.04-37.13-28.1,11.02-7.85h52.22l11.03,7.85-37.09,28.06ZM82.72,89.06l-23.49,8.65v24.46l34.53-26.13-9.81-6.98h-1.23ZM60.12,120.36v-22.02l22.75-8.38h.79l8.58,6.1-32.12,24.3ZM37.07,89.06l21.42,7.89,21.42-7.89h-42.84ZM42.1,89.96h32.79l-16.4,6.04-16.39-6.04ZM33.03,89.06l-9.8,6.98,34.53,26.13v-24.46l-23.49-8.65h-1.24ZM56.87,120.36l-32.13-24.3,8.58-6.1h.79l22.76,8.38v22.02Z"/></g></svg>