<?xml version="1.0" encoding="UTF-8"?><svg id="Layer_2" xmlns="http://www.w3.org/2000/svg" viewBox="0 0 466.03 106.8"><defs><style>.cls-1{fill:#fafeff;}</style></defs><g id="Layer_2-2"><path class="cls-1" d="M138.53,53.36c0,8.58-.95,15.08-2.85,19.5-1.9,4.42-4.88,6.63-8.93,6.63h-10.76V27.23h10.76c4.06,0,7.03,1.96,8.93,5.89s2.85,10.67,2.85,20.24ZM131.97,53.36c-.1-8.74-.7-14.16-1.79-16.26-1.09-2.11-2.52-3.13-4.29-3.08h-3.35v38.69h3.35c1.72.05,3.15-1.25,4.29-3.9s1.74-7.8,1.79-15.44h0Z"/><path class="cls-1" d="M149.96,32.45c0,.99-.31,1.79-.94,2.42-.68.62-1.48.94-2.42.94s-1.72-.31-2.34-.94c-.62-.67-.94-1.48-.94-2.42,0-.99.31-1.77.94-2.34.62-.62,1.4-.94,2.34-.94s1.72.29,2.34.86c.68.62,1.01,1.43,1.01,2.42h.01ZM149.96,79.49h-6.63v-38.14h6.63v38.14Z"/><path class="cls-1" d="M172.89,79.49h-6.08v-1.09c-.99,1.35-2.42,2.03-4.29,2.03-5.88-.16-8.81-4.37-8.81-12.64,0-9.15,2.99-13.88,8.97-14.2,1.14,0,2.34.26,3.59.78v-2.73c0-2.7-.96-4.06-2.89-4.06-2.13-.1-3.82.81-5.07,2.73l-4.29-4.29c2.03-3.43,5.07-5.3,9.13-5.62,6.5,0,9.75,3.82,9.75,11.47v27.61h-.01ZM166.26,70.75v-9.2c-.83-.57-1.9-.86-3.2-.86-1.98.16-2.96,2.47-2.96,6.94.05,4.21,1.25,6.27,3.59,6.16,1.46-.05,2.31-1.06,2.57-3.04Z"/><path class="cls-1" d="M208.05,79.49h-6.71v-28.31c0-2.65-.81-3.98-2.42-3.98-1.87,0-2.78,1.33-2.73,3.98v28.31h-6.79v-28.39c.05-2.44-.81-3.67-2.57-3.67-1.87-.05-2.78,1.2-2.73,3.74v28.31h-6.63v-38.85h6.63v2.73c.68-1.98,2.18-2.96,4.52-2.96,2.18,0,3.85,1.17,4.99,3.51.94-2.34,2.89-3.51,5.85-3.51,2.6,0,4.68.94,6.24,2.81s2.34,4.52,2.34,7.96v28.31h0Z"/><path class="cls-1" d="M231.4,60.22c.05,7.75-.73,13.05-2.34,15.91s-3.93,4.29-6.94,4.29c-3.43,0-5.98-1.62-7.64-4.88-1.67-3.25-2.44-8.28-2.34-15.09,0-6.5.69-11.47,2.07-14.9s3.99-5.15,7.84-5.15c3.48,0,5.91,1.74,7.29,5.23,1.38,3.48,2.07,8.35,2.07,14.59h-.01ZM225.4,60.22c-.31-6.03-.64-9.66-.98-10.88-.34-1.22-1.13-1.86-2.38-1.91-1.25.05-2.11.68-2.57,1.87-.47,1.2-.81,4.89-1.01,11.08.1,5.04.36,8.45.78,10.22.42,1.77,1.35,2.7,2.81,2.81,1.4-.05,2.3-.99,2.69-2.81s.61-5.28.66-10.37h0Z"/><path class="cls-1" d="M235.47,79.49v-38.85h6.55v2.34c1.25-1.72,2.83-2.57,4.76-2.57,2.18.05,3.93,1.01,5.23,2.89,1.3,1.87,1.95,3.87,1.95,6.01v30.19h-6.63v-28.47c-.21-1.87-1.14-2.81-2.81-2.81-1.61.21-2.44,1.2-2.5,2.96v28.31h-6.55,0Z"/><path class="cls-1" d="M277.3,79.49h-6.47v-1.48c-1.04,1.61-2.37,2.42-3.98,2.42-5.88,0-8.81-6.79-8.81-20.36,0-5.41.57-9.78,1.72-13.1,2.03-5.98,5.67-7.77,10.92-5.38v-11.23l6.63-3.98v53.12h-.01ZM270.67,67.24v-15.05c0-3.17-.86-4.76-2.57-4.76s-2.76,1.77-3.12,5.3c-.1.83-.16,3.28-.16,7.33,0,4.89.16,8.17.47,9.83.42,2.24,1.35,3.35,2.81,3.35,1.72,0,2.57-2,2.57-6.01h0Z"/><path class="cls-1" d="M319.81,53.36c0,8.58-.95,15.08-2.85,19.5s-4.88,6.63-8.93,6.63h-10.76V27.23h10.76c4.06,0,7.03,1.96,8.93,5.89s2.85,10.67,2.85,20.24ZM313.26,53.36c-.1-8.74-.7-14.16-1.79-16.26-1.09-2.11-2.52-3.13-4.29-3.08h-3.35v38.69h3.35c1.72.05,3.15-1.25,4.29-3.9s1.74-7.8,1.79-15.44h0Z"/><path class="cls-1" d="M331.24,32.45c0,.99-.31,1.79-.94,2.42-.68.62-1.48.94-2.42.94s-1.72-.31-2.34-.94c-.62-.67-.94-1.48-.94-2.42,0-.99.31-1.77.94-2.34.62-.62,1.4-.94,2.34-.94s1.72.29,2.34.86c.68.62,1.01,1.43,1.01,2.42h.01ZM331.24,79.49h-6.63v-38.14h6.63v38.14Z"/><path class="cls-1" d="M352.31,69.43c-.05,3.85-.94,6.64-2.65,8.39-1.72,1.74-3.72,2.61-6.01,2.61s-4.29-.81-5.85-2.42-2.78-3.77-3.67-6.47l5.85-2.89c1.2,3.33,2.47,4.89,3.82,4.68,1.35-.16,2.05-1.09,2.11-2.81.05-1.56-.4-3.17-1.37-4.84-.96-1.66-2.04-3.17-3.24-4.52-1.46-1.56-2.81-3.39-4.06-5.5s-1.82-4.22-1.72-6.36c-.05-2.18.65-4.21,2.11-6.08s3.33-2.81,5.62-2.81c4.52.1,7.41,2.44,8.66,7.02l-4.99,2.5c-.89-2.29-1.98-3.43-3.28-3.43-1.3.1-1.95,1.04-1.95,2.81.21,1.46.77,2.8,1.68,4.02.91,1.22,2.09,2.64,3.55,4.25,1.2,1.14,2.38,2.8,3.55,4.95,1.17,2.16,1.78,4.46,1.83,6.9h.01Z"/><path class="cls-1" d="M369.59,72.47l-1.64,7.02c-.78.62-1.69.94-2.73.94-2.13,0-3.81-.78-5.03-2.34s-1.86-3.59-1.91-6.08v-24.57h-4.06v-7.02h4.06v-10.69l6.79-3.35v14.04h4.52v7.02h-4.52v23.79c.1,1.66.73,2.47,1.87,2.42.88,0,1.77-.39,2.65-1.17h0Z"/><path class="cls-1" d="M387.68,42.05l-1.17,7.96c-.78-1.35-1.82-2.03-3.12-2.03-2.44,0-3.69,2.16-3.74,6.47v25.04h-6.63v-38.85h6.63v1.87c1.14-1.4,2.52-2.11,4.13-2.11,1.46,0,2.76.55,3.9,1.64h0Z"/><path class="cls-1" d="M396.61,32.45c0,.99-.31,1.79-.94,2.42-.68.62-1.48.94-2.42.94s-1.72-.31-2.34-.94c-.62-.67-.94-1.48-.94-2.42,0-.99.31-1.77.94-2.34.62-.62,1.4-.94,2.34-.94s1.72.29,2.34.86c.68.62,1.01,1.43,1.01,2.42h.01ZM396.61,79.49h-6.63v-38.14h6.63v38.14Z"/><path class="cls-1" d="M414.26,51.33c-.42-2.55-1.56-3.82-3.43-3.82-1.25-.05-2.15.51-2.69,1.68-.55,1.17-.9,4.85-1.05,11.04.16,6.5.56,10.31,1.21,11.43s1.62,1.65,2.93,1.6c1.51-.16,2.47-1.27,2.89-3.35l5.38,2.65c-1.09,5.04-3.82,7.64-8.19,7.8-3.43,0-6.06-1.42-7.88-4.25s-2.73-8.07-2.73-15.72.83-13.16,2.5-15.91c1.66-2.76,4.21-4.13,7.64-4.13,4.68.31,7.57,3.09,8.66,8.35l-5.23,2.65v-.02Z"/><path class="cls-1" d="M437.45,72.47l-1.64,7.02c-.78.62-1.69.94-2.73.94-2.13,0-3.81-.78-5.03-2.34s-1.86-3.59-1.91-6.08v-24.57h-4.06v-7.02h4.06v-10.69l6.79-3.35v14.04h4.52v7.02h-4.52v23.79c.1,1.66.73,2.47,1.87,2.42.88,0,1.77-.39,2.65-1.17h0Z"/><path class="cls-1" d="M453.67,106.8H12.36c-6.82,0-12.36-4.53-12.36-10.09V10.09C0,4.53,5.55,0,12.36,0h441.31c6.82,0,12.36,4.53,12.36,10.09v86.62c0,5.56-5.55,10.09-12.36,10.09h0ZM12.36,7c-2.09,0-3.78,1.38-3.78,3.09v86.62c0,1.7,1.7,3.09,3.78,3.09h441.31c2.09,0,3.78-1.38,3.78-3.09V10.09c0-1.7-1.7-3.09-3.78-3.09H12.36Z"/><path class="cls-1" d="M34.27,42.37h-1.24l-9.8,6.98,34.53,26.13v-24.46s-23.49-8.65-23.49-8.65ZM56.87,73.67l-32.13-24.3,8.58-6.1h.79l22.76,8.38s0,22.02,0,22.02ZM37.07,42.37l21.42,7.89,21.42-7.89s-42.84,0-42.84,0ZM42.1,43.27h32.79l-16.4,6.04-16.39-6.04ZM83.95,42.37h-1.23l-23.49,8.65v24.46l34.53-26.13-9.81-6.98ZM60.12,51.65l22.75-8.38h.79l8.58,6.1-32.12,24.3v-22.02ZM83.95,42.37h-1.23l-23.49,8.65v24.46l34.53-26.13-9.81-6.98ZM60.12,51.65l22.75-8.38h.79l8.58,6.1-32.12,24.3v-22.02ZM37.07,42.37l21.42,7.89,21.42-7.89s-42.84,0-42.84,0ZM42.1,43.27h32.79l-16.4,6.04-16.39-6.04ZM33.03,42.37l-9.8,6.98,34.53,26.13v-24.46l-23.49-8.65s-1.24,0-1.24,0ZM56.87,73.67l-32.13-24.3,8.58-6.1h.79l22.76,8.38s0,22.02,0,22.02ZM98.12,15.65H18.91c-1.4,0-2.55,1.14-2.55,2.55v70.77c0,1.41,1.15,2.55,2.55,2.55h79.21c1.41,0,2.55-1.14,2.55-2.55V18.2c0-1.41-1.14-2.55-2.55-2.55ZM58.54,79.76v-.53l-.05.03-39.59-29.95,12.87-9.16h53.44l12.87,9.16-.31.23.36.26s-39.59,29.96-39.59,29.96ZM84.89,40.59h-52.79l-12.26,8.72,38.38,29.04.27.21.05-.04h0l38.6-29.21-12.08-8.6-.17-.12ZM58.54,77.4l-.05.04-37.13-28.1,11.02-7.85h52.22l11.03,7.85s-37.09,28.06-37.09,28.06ZM82.72,42.37l-23.49,8.65v24.46l34.53-26.13-9.81-6.98h-1.23ZM60.12,73.67v-22.02l22.75-8.38h.79l8.58,6.1-32.12,24.3ZM37.07,42.37l21.42,7.89,21.42-7.89s-42.84,0-42.84,0ZM42.1,43.27h32.79l-16.4,6.04-16.39-6.04ZM33.03,42.37l-9.8,6.98,34.53,26.13v-24.46l-23.49-8.65s-1.24,0-1.24,0ZM56.87,73.67l-32.13-24.3,8.58-6.1h.79l22.76,8.38s0,22.02,0,22.02Z"/></g></svg>