<?xml version="1.0" encoding="UTF-8"?><svg id="Layer_2" xmlns="http://www.w3.org/2000/svg" viewBox="0 0 79.18 39.11"><defs><style>.cls-1{fill:#e4e8e9;}</style></defs><g id="Layer_2-2"><polygon class="cls-1" points="14.42 3.12 5.84 9.22 37.97 33.52 37.97 11.5 15.21 3.12 14.42 3.12"/><path class="cls-1" d="M39.64,37.25l37.09-28.06-11.03-7.85H13.48L2.46,9.19l37.13,28.1.05-.04ZM65.05,2.22l9.81,6.98-34.53,26.13V10.87L63.82,2.22h1.23ZM61.01,2.22l-21.42,7.89L18.17,2.22h42.84ZM38.86,35.33L4.33,9.2,14.13,2.22h1.24l23.49,8.65v24.46Z"/><polygon class="cls-1" points="55.99 3.12 23.2 3.12 39.59 9.16 55.99 3.12"/><polygon class="cls-1" points="64.76 3.12 63.97 3.12 41.22 11.5 41.22 33.52 73.34 9.22 64.76 3.12"/><path class="cls-1" d="M79.18,9.16L66.31,0H12.87L0,9.16l39.59,29.95.05-.03,24.87-18.82,14.67-11.1ZM39.32,38.2L.94,9.16,13.2.44h52.79l.17.12,12.08,8.6-38.6,29.21-.05.04-.27-.21Z"/></g></svg>